<svg id="Grupo_52" data-name="Grupo 52" xmlns="http://www.w3.org/2000/svg" width="76.619" height="80" viewBox="0 0 76.619 80">
  <path id="Trazado_66" data-name="Trazado 66" d="M1492.5,611.728c-2.037-3.148-9.5-13.584-18.287-12.409a.957.957,0,0,1-.744-.223l-.126-.106a1.308,1.308,0,0,0,.466-.943c.28-5.313,1.083-24.891-1.626-35.546-3.154-12.405-3.632-13.982-3.632-13.982l-2.087-6.072a1.264,1.264,0,0,0-.509-.658c-1.516-.972-7.493-4.336-13.732-1.484a5.746,5.746,0,0,0-3.188,4.2c-.735,3.955-2.562,4.937-2.562,4.937a3.3,3.3,0,0,1-2.413.247,2.67,2.67,0,0,0-3.72,2.81,3.275,3.275,0,0,1-1.663,3.539,4.133,4.133,0,0,1-1.893.577,4.035,4.035,0,0,0-3.507,2.13h0a1.362,1.362,0,0,0-.02,1.253c-.253-.179-.567-.155-1.021.406a40.491,40.491,0,0,0-2.654,4.605c-1.713,3.268-1.713,3.268-2.626,5.072l-6.668,11.407c-.82,2.369.661,5.323,3.155,6.616,1.8.933,4.4.765,7.357-3.39a6.1,6.1,0,0,0,.546-.938c7.135-15.193,4.139-21.139,2.573-22.962-.047-.054-.093-.116-.139-.18,2.845,3.09,10.4,14.043,4.861,39.145a1.373,1.373,0,0,0-.029.372h0l-.389,1.086A43.825,43.825,0,0,0,1417.06,614.5c-8.6,9.716,40.753,1.534,49.976-.066a11.264,11.264,0,0,1,2.973-.118l9.583.893a15.811,15.811,0,0,0,12.614-1.964A1.122,1.122,0,0,0,1492.5,611.728Z" transform="translate(-1416.057 -539.181)" fill="#1d71b8"/>
  <path id="Trazado_67" data-name="Trazado 67" d="M1608.49,847.477s-16.4-8.535-33.675,4.05c-1.838,9.437-1.842,10.219-1.842,10.219s26.26-4.13,35.076-1.429C1608.407,848.044,1608.49,847.477,1608.49,847.477Z" transform="translate(-1550.306 -800.523)" fill="#1d1d1b"/>
</svg>
