<svg xmlns="http://www.w3.org/2000/svg" width="352.883" height="269.159" viewBox="0 0 352.883 269.159">
  <g id="Grupo_43" data-name="Grupo 43" transform="translate(-381.748 -273.269)">
    <path id="Trazado_96" data-name="Trazado 96" d="M560.143,542.11c-43.533-2.155-87.069-1.8-130.61-1.929-12.5-.037-25.005-.2-37.493-.675-8.084-.315-8.718-1.477-9.334-9.29-2.382-30.871.26-61.641,1.647-92.441.831-18.335.894-36.692,1.584-55.034,1.139-30.492,2.467-60.988,3.8-91.477.345-7.924,1.577-8.926,9.375-10.358a163.024,163.024,0,0,1,31.156-2.389c35.463.33,70.823-2.252,106.216-3.818,34.161-1.51,68.33-2.007,102.518-.594,21.648.894,43.343.375,64.969,2.081,6.934.549,13.846,1.432,20.728,2.419,6.3.9,8.032,2.475,8.392,8.811.727,12.625,1.228,25.283,1.413,37.931.545,38.309-.768,76.611-1.1,114.916-.26,30.066-.82,60.127-1.235,90.193-.018,1.109-.041,2.219.007,3.324.3,8.043-.386,8.685-8.67,8.644q-43.451-.178-86.925-.3C611.1,542.069,585.623,542.11,560.143,542.11Z" transform="translate(0 0)" fill-rule="evenodd"/>
    <path id="Trazado_97" data-name="Trazado 97" d="M551.311,524.582c-41.34,0-82.673-.1-124.013.056-12.8.048-25.61.634-38.4,1.343-3.732.208-4.6-.887-4.6-4.382.007-32.447,1.551-64.85,2.359-97.275s4.018-64.743,4.063-97.2c.018-12.184.367-24.375.62-36.558.13-6.429.586-6.7,6.9-7.713,14.154-2.278,28.4-1.384,42.628-1.566,34.966-.434,69.837-2.927,104.744-4.552q48.4-2.259,96.782.1c18.483.876,37.007,1.046,55.5,1.606,4.9.148,9.794.753,14.688.779,3.825.022,5.194,1.625,5.424,5.361,1.4,22.772,1.477,45.566,1.105,68.364-.89,53.98-1.547,107.968-.983,161.955.126,11.475.293,11.445-11.1,11.43-46.059-.041-92.074-2.76-138.137-2.081-5.862.093-11.724.011-17.582.011Z" transform="translate(6.924 6.442)" fill="#fefefe" fill-rule="evenodd"/>
    <path id="Trazado_98" data-name="Trazado 98" d="M423.988,339.919c2.152-15.359,2.664-30.819,2.886-46.3a42.48,42.48,0,0,1,.575-7.067c.423-2.293,1.77-4.329,4.289-4.459,13.126-.7,25.647.92,35.749,10.484,8.934,8.451,10.573,17.674,5.3,28.827-3.443,7.264-8.544,12.848-16.072,15.994-.9,2.434,1.573,2.3,2.564,3.153,3.7,3.187,7.947,5.854,9.257,11.037,7.453,14.558,5.487,24.556-7.294,36.974-1.643,3.191-4.667,4.734-7.754,5.865-7,2.552-14.4,3.651-21.729,4.567-6.886.872-9.39-1.818-9.857-8.815q-.084-1.185-.156-2.371c-.646-12.744.95-25.425,1-38.15C422.8,346.367,421.988,342.961,423.988,339.919Z" transform="translate(107.97 23.526)" fill="#1d71b8" fill-rule="evenodd"/>
    <path id="Trazado_99" data-name="Trazado 99" d="M505.078,310.658a29.622,29.622,0,0,0,.234,4.233c.675,3.428,2.43,6.214,6.359,5.405,10.815-2.207,22.319-2.274,31.631-9.5.282,2.456,2.2,1.847,3.651,1.847,28.815.022,57.646.493,86.439-.26,10.759-.278,21.444-.286,32.151.315a13.847,13.847,0,0,1,4.126.887c1.747.671,3.643,1.447,3.673,3.821.03,2.53-1.8,3.625-3.8,4.267a25.864,25.864,0,0,1-7.9,1.31c-48.285-.033-96.578.033-144.863-.056-12.284-.03-24.549-.531-36.836-1.284-8.748-.53-17.719,1.347-26.5.4-14.268-1.539-28.355,1.265-42.535.9-5.209-.13-10.414-.456-15.623-.679-2.015-.093-4-.371-3.97-2.979.026-2.63,2.048-2.745,4.047-2.875,4.088-.26,8.173-.761,12.262-.894,2.615-.085,4.467-1.343,6.244-2.979,1.773,1.38,1.143,3.439,1.488,5.227.145.764.193,1.714,1.057,1.9,1.191.256,1.58-.816,1.944-1.655A42.369,42.369,0,0,0,419.6,313c.371-1.228.46-3.146,2.7-1.992a6.292,6.292,0,0,0,5.153,1.8c12.6-.579,25.183-1.38,37.779-1.621,2.59-.174,2.846,1.978,3.647,3.632.757,1.555,1.484,3.491,3.576,3.243,2.167-.267,1.692-2.3,1.755-3.806a2.447,2.447,0,0,1,1.744-2.523c5.465-.987,10.97-.382,16.454-.46A120.135,120.135,0,0,0,505.078,310.658Z" transform="translate(25.908 101.295)" fill="#fedca9" fill-rule="evenodd"/>
    <path id="Trazado_100" data-name="Trazado 100" d="M405.059,383.192c-1.491,2.526-.924,5.513-1.862,8.184-.623,1.781-1.488,3.343-3.591,3.042-2.059-.286-2.029-2.1-2.066-3.714-.048-1.9-.1-3.8-.152-5.695.315-11.538,4.215-22.557,5-34.035.564-4.548-.571-9.423,2.571-13.475,3.465-14.265,7.327-28.422,10.024-42.861a26.182,26.182,0,0,1,2.348-6.674c2.493-5.023,6.325-5.391,10.01-1.091,2.089,2.445,3.235,5.4,4.37,8.358,4.7,12.236,8.292,24.835,12.295,37.3.326,1.043.746,2.063,1.132,3.1,2.723,3.291,2.315,7.639,3.8,11.353,3.35,11.293,6.355,22.686,9.557,34.024.386,1.347.92,2.73-.067,4.062.189.76.341,1.525.568,2.267.646,2.1.148,3.606-1.918,4.675-2.423,1.239-3.669-.482-4.623-1.952a37.4,37.4,0,0,1-2.575-5.906c-2.141-1.246-2.534-3.58-3.3-5.591a195.367,195.367,0,0,1-6.344-19.414c-.942-3.621-2.731-5.294-6.819-4.549a105.054,105.054,0,0,1-14.636,1.235c-4.608.189-6.429,2.1-7.142,6.374a145.35,145.35,0,0,1-3.944,16.138C407.181,380.15,406.981,382.15,405.059,383.192Z" transform="translate(42.382 28.816)" fill="#1d71b8" fill-rule="evenodd"/>
    <path id="Trazado_101" data-name="Trazado 101" d="M445.362,334.535c2.742-8.715,4.923-17.619,9.115-25.829a57.068,57.068,0,0,1,17.43-20.294,27.2,27.2,0,0,1,17.363-5.142,8.13,8.13,0,0,1,5.22,1.933c1.9,1.606,1.573,2.957-.8,3.7a20.8,20.8,0,0,1-2.341.308c-12.228,2.23-21.529,8.663-27.717,19.466a72.054,72.054,0,0,0-7.917,20.175c-1.2,4.6,1.395,9.019.642,13.612-.557,3.4-1.644,6.778-.6,10.269a54.911,54.911,0,0,0,3.892,15.1c3.51,8.752,11.709,11.482,19.711,6.637a40,40,0,0,1,10.8-4.764c.916-.23,2.037-.531,2.645.349s-.1,1.785-.579,2.608c-8.485,14.495-28.775,18.083-39.474,4.255a38.985,38.985,0,0,1-8.455-21.262c-.482-4.5-.323-9.041-1.013-13.556A9.983,9.983,0,0,1,445.362,334.535Z" transform="translate(166.49 27.07)" fill="#1d71b8" fill-rule="evenodd"/>
    <path id="Trazado_102" data-name="Trazado 102" d="M397.488,360.1c-1.873-11.479,2.942-20.227,11.237-27.558,3.105-4.419,7.884-6.148,12.747-7.279a27.453,27.453,0,0,1,10.284-.167,9.008,9.008,0,0,1,7.409,5.847c1.566,4.945,2.53,10.065,4.723,14.821,3.617,7.847,7.62,9.282,14.866,5.372,1.951-1.054,4.214-3.331,6.3-1.039,1.877,2.063.134,4.437-1.013,6.5a9.762,9.762,0,0,1-1.124,1.514c-7.876,9.082-15.248,9.427-23.941,1.161a24.587,24.587,0,0,1-4.641-6.351c-1.076-2.2-2.3-2.415-3.517-.093a41.159,41.159,0,0,1-4.2,6.682c-2.641,2.567-4.916,5.569-8.314,7.283-5.064,2.007-10.128,1.588-15.181-.019C400.252,365.38,398.056,363.428,397.488,360.1Z" transform="translate(41.564 139.352)" fill="#1d71b8" fill-rule="evenodd"/>
    <path id="Trazado_103" data-name="Trazado 103" d="M522.111,335.274a11.014,11.014,0,0,0,8.585,1.213c10.021-2.445,20.112-.386,30.169.011a12.415,12.415,0,0,1,4.022,1.339c1.532.642,2.768,1.606,2.634,3.517a3.544,3.544,0,0,1-2.979,3.268c-3.977.983-7.965,2-12.113,2-25.143,0-50.3.531-75.431-.2-15.764-.46-31.583-.078-47.313-1.788,1.1-4.341,4.63-7.253,6.645-11.067.382-.742,1.41-.315,2.13.052,4.47,1.989,9.357,1.87,13.979,1.918,13.909.148,27.769,1.974,41.689,1.031,2.189.134,3.6,1.733,5.279,2.834,6.856,4.511,11.683,4.1,17.726-1.425C518.538,336.695,519.614,334.613,522.111,335.274Z" transform="translate(129.906 162.302)" fill="#fedca9" fill-rule="evenodd"/>
    <path id="Trazado_104" data-name="Trazado 104" d="M453.827,378.233a39.118,39.118,0,0,1-7.624,11.282,31.371,31.371,0,0,1-8.637,3.762c-4.99,1.061-8.937-.868-12.124-4.645-1.962-2.218-2.118-4.864-1.6-7.565a88.008,88.008,0,0,0,1.1-19.748,25.317,25.317,0,0,1,.408-5.914c1.354-4.014-.586-8.514,1.822-12.38,2-6.9,1.929-13.99,2.126-21.073.056-2.022-.831-4.968,2.367-5.327,3.053-.33,2.957,2.738,3.706,4.645a15.962,15.962,0,0,1,.527,3.717c.857,3.877.256,7.809.364,11.72.178,6.489,1.143,12.354,9.089,13.675a6,6,0,0,1,2.066,1.106,30.472,30.472,0,0,1,7.327,6.619C459.444,364.1,459,373.373,453.827,378.233Z" transform="translate(113.39 117.428)" fill="#1d71b8" fill-rule="evenodd"/>
    <path id="Trazado_105" data-name="Trazado 105" d="M438.168,346.552c-1.432-.649-2.819-1.744-4.3-1.87-5.55-.479-7.023-3.925-6.978-8.748.048-5.691.048-11.382.07-17.073,1.758,2.771.857,5.858.9,8.785.145,8.986.23,9.16,9.442,9.164q27.307,0,54.611,0c13.1.011,26.248-.571,39.3.278,12.354.809,24.6-.779,36.892-.282,3.161.126,7.323-.171,7.7,3.691.419,4.359-4.077,4.285-7.019,4.389-10.54.378-21.039,2.248-31.646.872a77.789,77.789,0,0,0-8.533-.189c1.213-4.671.753-5.224-4.1-5.476a22.087,22.087,0,0,0-16.784,5.851c-1.161,1.061-2.23,2.308-4.077,1.451a18.413,18.413,0,0,0-6.455-1.321c-18.42.019-36.844-.2-55.264.115A18.714,18.714,0,0,0,438.168,346.552Z" transform="translate(122.331 123.555)" fill="#fedca9" fill-rule="evenodd"/>
    <path id="Trazado_106" data-name="Trazado 106" d="M447.281,319.427a75.829,75.829,0,0,1-.045-23.881c-.7,4.764,1.306,6.122,6.047,5.873,15.938-.846,31.958-2.152,47.855-.757,10.87.954,21.7-1.2,32.5.657,2.912.49,6.081.549,5.932,4.5-.152,3.936-3.428,3.97-6.273,4.151-21.006,1.276-42.049.761-63.07.965-6.47.059-12.94.612-19.407.809-2.389.078-3.5,1.028-3.439,3.424C447.422,316.593,447.322,318.017,447.281,319.427Z" transform="translate(174.97 60.372)" fill="#fedca9" fill-rule="evenodd"/>
    <path id="Trazado_107" data-name="Trazado 107" d="M511.655,323.723c-.408,4.137,1.135,8.4-.79,12.439-5.042-1.584-10.228-1.406-15.422-1.388-13.438.063-26.879-.041-40.316.056a8.265,8.265,0,0,1-4.181-.56c-3.283-5.743-9.234-7.4-17.363-5.161-4.493,1.243-8.054,4.2-12.2,6.051-7.268-2.007-14.662-.338-21.978-.7-2.17-.1-4.352-.015-6.986-.015.916-3.076,3.072-3.669,5.153-3.873,19.926-1.933,39.789-4.278,59.842-5.179,16.268-.738,32.566.286,48.8-1.3C508.008,323.9,509.922,325.252,511.655,323.723Z" transform="translate(28.91 136.73)" fill="#fedca9" fill-rule="evenodd"/>
    <path id="Trazado_108" data-name="Trazado 108" d="M453.147,332.947c5.669-7.709,13.694-9.26,22.568-8.581a4.085,4.085,0,0,1,3.832,2.964c.846,2.486-1.662,2.571-2.682,3.714-7.227.9-13.319,3.71-17.348,10.121a14.556,14.556,0,0,0-2.415,7.1c-.334,7.335,4.392,10.5,10.985,7.442,1.436-.66,2.842-1.373,4.315-1.944,1.951-.76,4.051-1.425,5.721.408,1.554,1.707.475,3.558-.174,5.324-2.2,1.97-4.285,4.1-6.637,5.866-6.251,4.667-13.912,3.079-20.249-4.029C443.446,353.749,444.592,338.148,453.147,332.947Z" transform="translate(174.068 138.084)" fill="#1d71b8" fill-rule="evenodd"/>
    <path id="Trazado_109" data-name="Trazado 109" d="M482.432,328.577c.074,5.954.783,11.95-.709,17.815-.842,3.313.078,6.526.044,9.783-26.322.482-52.641.724-78.963.082a45.458,45.458,0,0,1,7.605-7.594c4.456-.542,8.963-.245,13.4-1.005,4.626,4.541,9.6,7.605,16.42,4.6,2.734-1.213,4.422-3.417,6.351-5.446,9.939,1.332,19.815-.178,29.713-.623,2.567-.122,2.957-1.933,3.016-3.973.082-3-.174-6.029.571-8.963C480.329,331.512,480.121,329.334,482.432,328.577Z" transform="translate(57.064 149.885)" fill="#fedca9" fill-rule="evenodd"/>
    <path id="Trazado_110" data-name="Trazado 110" d="M479.547,297.578a176.864,176.864,0,0,0-1.061,21.121,7.369,7.369,0,0,1-.675-1.7c-.927-7.913-.916-7.95-9.138-7.98q-10.184-.033-20.379.078c-1.643.018-3.654-.571-4.1,1.992a38.069,38.069,0,0,0-11.861-11.338c-1.714-.987-2.942-1.937.041-2.853a2.915,2.915,0,0,0,2.582.868Q457.259,297.674,479.547,297.578Z" transform="translate(132.305 64.027)" fill="#fedca9" fill-rule="evenodd"/>
    <path id="Trazado_111" data-name="Trazado 111" d="M412.933,310.305a56.111,56.111,0,0,1-2.675-11.553c12.659.683,25.25-.768,37.868-1.232,2.23-.082,4.378.523,6.57.223q.056,4.847.1,9.7c-1.833,1.606-4.1,1.387-6.266,1.4-7.22.052-14.428.074-21.644,0C422.171,308.8,417.489,308.858,412.933,310.305Z" transform="translate(77.262 65.702)" fill="#fedca9" fill-rule="evenodd"/>
    <path id="Trazado_112" data-name="Trazado 112" d="M418.449,298.349c-1.221,4.419-.453,9.223-2.571,13.475.008-3.172-1.284-4.374-4.7-4.114a132.609,132.609,0,0,1-14.673.019c-1.67-.063-3.847-.367-4.081-2.482-.234-2.185,1.77-2.764,3.487-3.131a81.644,81.644,0,0,1,15.448-1.747C413.916,300.319,416.442,300.26,418.449,298.349Z" transform="translate(28.891 67.968)" fill="#fedca9" fill-rule="evenodd"/>
    <path id="Trazado_113" data-name="Trazado 113" d="M415.695,334.234q2.821,3.333,5.636,6.674c-10.184,1.955-20.36,1.165-30.964-.07,1.425-2.248,3.461-2.452,5.309-2.708,5.6-.757,11.219-1.388,16.84-1.974C413.955,336,415.446,336.219,415.695,334.234Z" transform="translate(23.358 165.215)" fill="#fedca9" fill-rule="evenodd"/>
    <path id="Trazado_114" data-name="Trazado 114" d="M410.979,303.053c1.295-3.213,4.248-2.76,6.745-2.786,11.709-.111,23.406-.067,35.119-.074.942,6.184-.556,12.276-.757,18.409-.23,6.8-.219,13.6-.315,20.4-.864,1.825-2.363,2.137-4.252,2.107-8.644-.122-17.289-.111-25.929-.167Q416.292,322.007,410.979,303.053Z" transform="translate(79.216 72.955)" fill="#fefefe" fill-rule="evenodd"/>
    <path id="Trazado_115" data-name="Trazado 115" d="M425.6,305.623c-.286-5.257.564-11.43-.579-17.537-.52-2.76.7-3.936,3.305-3.729,9.271.724,17.645,3.506,23.618,11.148,6.448,8.244,4.3,19.177-4.76,24.371-5.684,3.265-12.109,4.385-18.357,5.962-2.59.657-3.283-.92-3.246-3.231C425.649,317.246,425.6,311.878,425.6,305.623Z" transform="translate(116.964 29.987)" fill="#fefefe" fill-rule="evenodd"/>
    <path id="Trazado_116" data-name="Trazado 116" d="M444.153,301.174c6.515,3.966,10.013,9.939,11.059,17.322,1.347,9.527-6.029,18.131-16.851,19.856-2.174.345-4.389.479-6.593.62-7.349.475-7.672.159-7.249-7.787.508-9.6,1.877-19.151,1.655-28.8a3.319,3.319,0,0,1,3.239-2.278C434.359,299.913,439.371,299,444.153,301.174Z" transform="translate(115.585 71.772)" fill="#fefefe" fill-rule="evenodd"/>
    <path id="Trazado_117" data-name="Trazado 117" d="M442.866,305.037q-6.784.067-13.564.145c-1.558.011-3.15-.137-4.415,1.069-.226-7.7,2.5-9.52,9.82-6.615C437.809,300.87,440.74,302.332,442.866,305.037Z" transform="translate(116.872 67.91)" fill="#fedca9" fill-rule="evenodd"/>
    <path id="Trazado_118" data-name="Trazado 118" d="M399.468,332.981c2.111-8.077,4.645-16.057,5.9-24.341.419-2.7,1.825-4.114,4.719-4.281,6.927-.39,13.9-.3,20.728-1.792,2.656-.571,3.632.694,4.237,3.075,2.471,9.631,5.88,18.958,9.23,28.307a3.078,3.078,0,0,1-2.523,1.043c-12.766.419-25.543.468-38.276,1.733C400.707,337,399.272,335.871,399.468,332.981Z" transform="translate(47.973 79.028)" fill="#fefefe" fill-rule="evenodd"/>
    <path id="Trazado_119" data-name="Trazado 119" d="M402.282,322.285q3.461-16.65,6.919-33.3c.46-.045.92-.085,1.38-.126q4.981,14.786,9.969,29.576c.634,4.649-.111,5.784-4.511,6.129-3.131.245-6.259.46-9.4.694C404.6,325.408,402.386,325.253,402.282,322.285Z" transform="translate(55.647 42.236)" fill="#fafcfd" fill-rule="evenodd"/>
    <path id="Trazado_120" data-name="Trazado 120" d="M403.065,300.681c.924,1.933,2.556,2.3,4.385,1.747a23.671,23.671,0,0,1,8.919-.7c3.87.345,5.2-1.362,4.964-4.9,2.43,2.671,1.536,6.27,2.523,9.353a2.161,2.161,0,0,1-2.675,2.834c-4.24-1.191-8.31-.542-12.517.082C402.171,310.052,400.676,307.641,403.065,300.681Z" transform="translate(54.864 63.84)" fill="#fedca9" fill-rule="evenodd"/>
    <path id="Trazado_121" data-name="Trazado 121" d="M467.834,334.876c-2.111,5.079-1.721,10.425-1.6,15.723.048,2.2-.4,3.469-3.057,3.524-9.093.2-18.168.664-27.25.939-1.532.041-3.7.835-3.944-1.955,1.554-2.167,3.15-4.315,2.493-7.962-2.449,1.328-4.667,2.526-6.9,3.732-5.943,3.2-8.845,2.552-12.655-3.053-3.792-5.554-5.283-11.983-6.73-18.409,1.343-1.043,2.9-1.061,4.5-1.061,16.6,0,33.193.008,49.788-.1,2.59-.022,4.593.482,5.632,3.053C468.012,331.166,467.926,333.017,467.834,334.876Z" transform="translate(71.663 143.586)" fill="#fdfefe" fill-rule="evenodd"/>
    <path id="Trazado_122" data-name="Trazado 122" d="M421.592,326.862c-1.588,8.466-4.311,15.964-9.6,22.319a16.217,16.217,0,0,1-3.792,3.513c-2.033,1.258-4.4,2.092-6.7.6s-2.378-3.929-2.1-6.351C400.467,337.484,410.373,328.383,421.592,326.862Z" transform="translate(47.53 145.237)" fill="#fcfcfd" fill-rule="evenodd"/>
    <path id="Trazado_123" data-name="Trazado 123" d="M418.252,340.609c-4.267,3.024-8.793,2.523-13.4,1.005,1.714-2.979,3.476-5.925,5.12-8.945,1.21-2.215,2.2-1.788,3.131.126A38.668,38.668,0,0,0,418.252,340.609Z" transform="translate(62.62 156.933)" fill="#f3f8fc" fill-rule="evenodd"/>
    <path id="Trazado_124" data-name="Trazado 124" d="M496.643,328.591c-7.765,8.941-7.309,18.487-2.085,28.381-7.3,2.037-14.751.913-22.1.787-10.573-.171-21.121-1.031-31.687-1.54-2.115-.1-4.307.145-4.126-3,5.242-12.814,4.148-16.977-6.715-25.554.894-2.089,2.76-1.8,4.474-1.8,18.691,0,37.385-.048,56.073.06C492.721,325.942,495.767,325.022,496.643,328.591Z" transform="translate(130.572 142.44)" fill="#fefefe" fill-rule="evenodd"/>
    <path id="Trazado_125" data-name="Trazado 125" d="M426.84,338.694a50.639,50.639,0,0,0-.044-6.144c-.46-3.788,1.135-4.689,4.6-3.97,5.183,1.083,8.188,3.747,8.258,7.639.089,5.283-4.7,12.844-8.666,13.59-2.8.523-4.2-.816-4.27-3.562-.063-2.515-.011-5.038-.011-7.553Z" transform="translate(121.772 149.277)" fill="#f8fafd" fill-rule="evenodd"/>
  </g>
</svg>
