<svg xmlns="http://www.w3.org/2000/svg" width="282.898" height="285.845" viewBox="0 0 282.898 285.845">
  <g id="Grupo_44" data-name="Grupo 44" transform="translate(-271.711 -254.941)">
    <path id="Trazado_170" data-name="Trazado 170" d="M301.14,429.732c22.83-12.743,33.746-36.087,38.3-58.68s4.138-45.857,10.823-68.079h36.6c-9.147,26.979-7.311,56.546-1.452,84.423,2.365,11.249,5.422,22.509,11.129,32.491s16.114,19.662,26.949,23.5" transform="translate(58.682 95.778)" fill="#fedca9" fill-rule="evenodd"/>
    <path id="Trazado_171" data-name="Trazado 171" d="M345.2,387.529a117.067,117.067,0,0,1-31.339-14.261c-3.29-2.135-6.566-4.53-8.584-7.892-4.036-6.728-1.311-16.584,5.6-20.285s16.629-.5,19.985,6.593c-12.461-5.165-23.892-14.144-29.195-26.548s-3.18-28.4,7.117-37.114,28.539-6.928,35.042,4.892c-5.171.072-8.123-6.707-6.347-11.563s6.383-8,10.722-10.814c8.746-5.671,17.722-11.44,27.875-13.788s21.9-.623,29.027,6.979,7.171,21.671-1.527,27.413a4.385,4.385,0,0,1-3.126.934c-3.326-.638-2.15-5.713-.138-8.434,4.928-6.668,10.273-13.279,17.33-17.629s16.21-6.114,23.731-2.62c7.153,3.323,11.647,10.824,13.365,18.524,4.4,19.746-9.293,41.737-28.952,46.5,5.985-13.608,24.97-19.123,37.737-11.5s17.159,26.1,9.9,39.072-24.515,18.985-38.575,14.15c3.734-4.626,12.231-2.141,14.308,3.431s-1.033,12.018-5.781,15.593-10.779,4.907-16.62,6.006c-3.644.686-9.392-1.829-7.018-4.677,4.281-3.6,10.832,3.482,8.6,8.611S419.7,406,414.111,406.035a43.038,43.038,0,0,1-29.177-11.356,6.314,6.314,0,0,1,8.949.06,28.642,28.642,0,0,1-48.016-15.186" transform="translate(54.14 1.659)" fill="#69c03b" fill-rule="evenodd"/>
    <path id="Trazado_172" data-name="Trazado 172" d="M276.443,354.142c18.425-3.18,37-5.608,55.707-6.141,18.632-.53,37.18,1.383,55.659,3.584,18.306,2.18,36.408,5.533,54.659,8.039a311.8,311.8,0,0,0,51.7,2.461c18.97-.563,37.866-2.476,56.764-4.129,1-.09,3.731-.35,3.674-1.856-.057-1.434-2.9-1.644-3.808-1.563-34.515,3.021-69.037,6.461-103.606,2.09-18.267-2.308-36.363-5.826-54.65-8.069-18.38-2.255-36.878-4.261-55.414-4.072-21.078.213-42.057,2.856-62.8,6.437-1.1.189-3.045.758-2.53,2.2.479,1.341,3.686,1.18,4.647,1.015Z" transform="translate(0 178.533)"/>
    <path id="Trazado_173" data-name="Trazado 173" d="M305.313,430.439c18.976-10.812,31.126-28.728,37.2-49.453,7.494-25.56,5.826-52.785,13.35-78.36.111-.374-6.323.671-6.826,2.377-7.228,24.569-5.979,50.593-12.494,75.279-5.362,20.324-16.494,39.77-35.2,50.426-.958.548-1.865.9-.865,1.428.9.473,4.081-1.269,4.835-1.7Z" transform="translate(56.493 94.936)"/>
    <path id="Trazado_174" data-name="Trazado 174" d="M332.784,304.721c-8.755,26.357-7.437,54.731-2.123,81.651,4.7,23.839,13.533,50.2,38.408,59.432,2.458.913,8.449-2.629,4.38-4.141-24.2-8.985-31.815-37.123-36.063-59.872-4.817-25.8-5.71-52.686,2.653-77.863.892-2.686-6.4-1.8-7.255.793Z" transform="translate(109.135 94.428)"/>
    <path id="Trazado_175" data-name="Trazado 175" d="M349.907,386.829a117.619,117.619,0,0,1-22.779-9.228c-5.967-3.219-14.3-7.213-17.063-13.856-2.033-4.889-.743-12.764,4.437-15.306,5.62-2.758,12.656,1.542,15.246,6.524l5.826-3.982c-17.931-7.6-34.36-24.387-30.393-45.378,1.626-8.611,7.042-16.824,16.1-18.524,8.213-1.542,17.147,1.779,21.428,9.114l5.114-4.114c-3.275-.195-4.982-3.763-5.1-6.7-.18-4.428,3.407-7.569,6.722-9.907,7.341-5.18,15.366-10.4,23.893-13.354,13.53-4.695,33.94-1.314,35.614,15.967a17.229,17.229,0,0,1-1.392,9.111c-.311.653-1.79,3.611-2.772,3.677-1.326.084-.416-3.006-.054-3.835,1.521-3.5,4.823-6.868,7.356-9.677a40.4,40.4,0,0,1,10.8-8.955c7.524-3.97,16.611-3.65,22.988,2.281,5.65,5.255,8.3,13.353,8.443,20.913.3,16.057-10.461,32.123-26.264,36.2l3.362,1.835c4.039-8.668,13.6-12.988,22.886-11.83,10.015,1.246,17.4,9.114,20.177,18.509,2.805,9.5.754,20.249-6.53,27.2-7.506,7.162-18.68,9.066-28.4,5.91l.042,3.192c2.078-2.255,6.356.757,7.68,2.716,2.356,3.488,1.246,8.255-1.006,11.47-2.53,3.614-6.713,5.24-10.82,6.338a24.474,24.474,0,0,1-6.5,1.284c-1.051-.027-5.632-2.159-4.847-.419.165.365,1.257.847,1.62,1.237a7.271,7.271,0,0,1,1.428,2.326,4.7,4.7,0,0,1-.542,4.653c-2.341,3.126-7.485,3.1-10.97,2.913a41.456,41.456,0,0,1-25.44-10.871l-.518,2.9c.958-.871,2.823.719,3.446,1.3l.515-2.9c-14.838,13.719-38.078,3.069-42.027-15.41-.689-3.231-7.548-.488-6.991,2.108,2.326,10.9,10.225,20.174,21.078,23.353,11.548,3.38,24.225-.344,32.928-8.392.793-.734,1.455-2.021.518-2.9-4.207-3.925-10.563-2.356-14.455,1.18-.782.713-1.467,2.042-.515,2.9,9.356,8.419,23.138,13.635,35.794,11.326,5.2-.949,10.707-3.416,13.392-8.222a8.738,8.738,0,0,0-2.844-11.434c-3.578-2.47-9.815-1.5-11.97,2.515-2.458,4.578,3.9,6.743,7.386,6.826,5.674.135,12.644-2.186,17.614-4.8,5.135-2.7,9.779-7.024,11.41-12.761,1.578-5.554-.264-11.261-5.65-13.794a12.85,12.85,0,0,0-14.7,2.9c-.835.907-1.692,2.629.042,3.189,18.886,6.135,43.162-4.674,47.348-25.069a32.234,32.234,0,0,0-6.7-26.985c-6.168-7.3-15.56-10.332-24.928-9.249-10.841,1.252-21.039,7.656-25.7,17.662-1.012,2.174,2.281,2.114,3.362,1.832,19.015-4.907,33.89-23.479,33.27-43.351-.308-9.859-4.728-20.584-13.7-25.53-9.856-5.434-22.243-2.213-31.036,3.82a62.476,62.476,0,0,0-12.839,12.371c-2.737,3.362-6.626,7.407-6.6,12.084.024,4.856,5.132,5.165,8.647,3.533a18.3,18.3,0,0,0,8.889-9.758,21.609,21.609,0,0,0-6.234-24.027c-7.946-6.659-19.375-7.677-29.177-5.542a69.634,69.634,0,0,0-19.716,8.108c-5.7,3.279-11.62,6.722-16.692,10.934-3.94,3.273-7.659,7.946-7.039,13.383.536,4.692,3.728,8.41,8.545,8.7,1.518.09,6.449-1.823,5.114-4.114-8.32-14.255-29.324-14.078-40.911-4.1-13.985,12.039-13.683,33.611-3.282,47.77,6.428,8.746,15.5,14.886,25.4,19.084,1.758.746,7.1-1.536,5.826-3.979-7.907-15.2-31.378-9.557-34.081,6.458-1.638,9.686,5.461,15.629,12.937,20.234a121.687,121.687,0,0,0,29.653,13.135c2.512.734,8.35-3.713,4.9-4.722Z" transform="translate(51.882 0)"/>
  </g>
</svg>
