<svg xmlns="http://www.w3.org/2000/svg" width="361.193" height="227.265" viewBox="0 0 361.193 227.265">
  <g id="Grupo_30" data-name="Grupo 30" transform="translate(-29.279 -39.735)">
    <path id="Trazado_126" data-name="Trazado 126" d="M209.691,266.752c-54.182.845-108.347-.735-162.529-.865a70.31,70.31,0,0,1-12.138-.608c-4.24-.749-5.755-2.582-5.744-6.678q.268-83.658.556-167.312c.062-13.9.062-27.812,1.054-41.7a24.455,24.455,0,0,1,.333-3.015,3.233,3.233,0,0,1,3.169-2.922,103.149,103.149,0,0,1,10.788-.944q56.922-.9,113.844-1.871c15.2-.275,30.4-.91,45.6-1.082,10.27-.113,20.55.227,30.82.494,44.894,1.171,89.8,1.782,134.7,2.407a97.729,97.729,0,0,1,15.146.982c1.9.323,2.829,1.03,3.2,2.843a42.08,42.08,0,0,1,.676,6.908c1.531,41.564.573,83.144.9,124.711.2,26.655.268,53.31.409,79.961.024,4.718-1.428,6.524-6.1,7.276a75.414,75.414,0,0,1-11.712.546C318.333,266.021,264.021,267.6,209.691,266.752Z" transform="translate(0 0)" fill-rule="evenodd"/>
    <path id="Trazado_127" data-name="Trazado 127" d="M32.817,43.84a8.916,8.916,0,0,1,1.336-.216c50.261-.57,100.515-1.212,150.776-1.658,45.2-.405,90.386.563,135.572,1.068q27.591.309,55.185.608c3.059.034,3.1.021,3.056,2.949-.968,61.712,1.229,123.4,1.291,185.1,0,6.081.282,12.162.374,18.246.062,4.46.319,4.024-3.815,4.024-44.468.024-88.947-.488-133.4.309-38.254.687-76.473-.615-114.713-.361-31.575.206-63.154.014-94.729.134-2.585.01-2.767-1.02-2.73-3.025.155-9.123.223-18.246.319-27.373.388-35.919.694-71.841,1.195-107.76.288-21,.443-42,.285-63C32.793,49.99,32.817,47.1,32.817,43.84Z" transform="translate(4.219 5.192)" fill="#fff" fill-rule="evenodd"/>
    <path id="Trazado_128" data-name="Trazado 128" d="M174.93,81.3c-5.157,5.459-9.432,11.633-14.133,17.46-5.336,6.61-10.723,13.178-16.09,19.764a1.462,1.462,0,0,1-1.126.47c-8.247-3.176-15.7-8.065-23.946-11.255-5.816-2.249-6.393-1.888-9.14,3.9-4.838,10.181-3.859,9.216,4.848,15.293a51.334,51.334,0,0,0,11.671,5.731c1.779.663,3.633,1.236,3.962,3.519-6.568,8.993-12.8,18.232-19.832,26.878a32.73,32.73,0,0,0-2.084,3.265c-1.49,2.349-3.87,2.548-5.806.56a13.207,13.207,0,0,1-1.26-1.761,329.767,329.767,0,0,1-24.619-42.36c-9.926-19.946-20-39.823-29.985-59.738-1.1-2.194-2.143-4.429-3.035-6.716-1.693-4.337-.337-6.4,4.179-6.4,20.124-.021,40.221.989,60.332,1.47a46.783,46.783,0,0,0,8.649-.333,28.625,28.625,0,0,1,6.922-.11c12.57,1.071,25.161.45,37.742.591a2.2,2.2,0,0,1,2.177,1.343c.831,4.913.494,10.012,2.551,14.754a41.034,41.034,0,0,0,8.244,12.505A.854.854,0,0,1,174.93,81.3Z" transform="translate(22.251 41.892)" fill="#4671ff" fill-rule="evenodd"/>
    <path id="Trazado_129" data-name="Trazado 129" d="M115.013,55.318c8.244.288,16.485.127,24.732-.093q11.933-.314,23.87-.488c3.763-.051,3.935.151,3.976,3.863.113,9.7.223,19.393.268,29.089a109.972,109.972,0,0,0,.618,13.865,1.968,1.968,0,0,1-.958,1.634c-13.364,6.95-20.406,18.754-25,32.465-1.3,3.894-1.418,7.956-1.909,11.966-.288.635-.687,1.13-1.476,1.047a379.055,379.055,0,0,0-46.855,1.281c-3.53.309-3.547.378-3.9-3.111a95.8,95.8,0,0,1-.065-21.226,37.937,37.937,0,0,0,.227-3.9c.172-15.626-.151-31.259.6-46.879a1.417,1.417,0,0,1,1.009-1.408c11.568-.876,19.407-6.857,23.863-17.456A1.45,1.45,0,0,1,115.013,55.318Z" transform="translate(129.568 53.63)" fill="#4671ff" fill-rule="evenodd"/>
    <path id="Trazado_131" data-name="Trazado 131" d="M102.715,116.732c.316-.319.632-.639.948-.961,4.591-2.112,9.525-2,14.387-2.084,10.967-.182,10.105,1.054,10.184-10.428.055-8.368-.46-16.763.951-25.079.436-2.544.371-5.212,1.8-7.52.357-.35.718-.7,1.075-1.04,10.854-3.083,21.443-1.926,31.884,1.913,6.163,2.266,10.644,6.847,15.389,11.07,1.054.941,1.058,1.765.261,2.967a43.6,43.6,0,0,1-5.1,6.462,611.719,611.719,0,0,1-45.674,42c-2.558,2.125-4.907,4.495-7.4,6.7-1.923,1.689-2.761,1.779-4.278-.258-3.883-5.209-8.416-9.93-11.76-15.554A22.284,22.284,0,0,1,102.715,116.732Z" transform="translate(165.988 85.565)" fill="#ffd763" fill-rule="evenodd"/>
    <path id="Trazado_132" data-name="Trazado 132" d="M113.567,100.979c-.374.326-.745.646-1.116.972a4.327,4.327,0,0,1-3.286.779c-6.369-1.119-12.711-2.366-18.239-6.043a1.792,1.792,0,0,1-.076-.646c3.331-7.708,8.241-14.445,13.013-21.264a35.47,35.47,0,0,0,3.743-5.628c-7.568-.034-14.538.021-21.511-.038-2.125-.021-4.34.433-6.311-.838-.539-.457-1.075-.91-1.614-1.363,1.645-5.762,4.065-11,8.546-15.269,8.663-8.247,24.135-10.325,33.931-5.473,10.939,5.415,17.985,13.806,20.2,25.848.666,3.612.615,7.513-2.524,10.424a1.722,1.722,0,0,1-.522.409c-1.48.965-3.076.347-4.625.309a39.662,39.662,0,0,1-4.711-.546c-10.785-1.48-13.278.649-13.573,11.382C114.827,96.371,115.5,98.936,113.567,100.979Z" transform="translate(106.255 26.507)" fill="#ffd763" fill-rule="evenodd"/>
    <path id="Trazado_133" data-name="Trazado 133" d="M86.674,97.06a10.106,10.106,0,0,0-4.385-2.568A69,69,0,0,1,64.25,84.421c-2.421-1.858-2.939-3.094-1.854-5.947A106.527,106.527,0,0,1,66.729,68.6c1.332-2.658,3.015-3.162,6.156-2.074a137.1,137.1,0,0,1,19.207,8.855c2.524,1.343,5.394,2.1,7.475,4.234-2.331,6.153-6.3,11.255-10.438,16.248Q87.9,96.461,86.674,97.06Z" transform="translate(66.553 81.013)" fill="#69c03b" fill-rule="evenodd"/>
    <path id="Trazado_134" data-name="Trazado 134" d="M69.8,86.347a4.012,4.012,0,0,1,.841-2.414c3.18-4.625,6.393-9.223,9.593-13.834.282-.062.563-.13.841-.206a124.637,124.637,0,0,1,18.249,7.969c4.282,2.211,4.91,3.7,2.884,7.921a62.829,62.829,0,0,1-5.1,8.553c-1.717,2.489-2.719,2.637-5.535,1.658C85.715,93.956,79.868,91.889,74,89.87A7.116,7.116,0,0,1,69.8,86.347Z" transform="translate(85.882 90.525)" fill="#ffd763" fill-rule="evenodd"/>
    <path id="Trazado_136" data-name="Trazado 136" d="M78.789,50.777h29.876a9.821,9.821,0,0,1-2.18,3.653c-4.783,6.314-9.49,12.677-13.158,19.743a12.133,12.133,0,0,1-3.471,4.368,15.047,15.047,0,0,1-5.628-5.878C80.269,65.936,77.824,58.76,78.789,50.777Z" transform="translate(107.25 44.004)" fill="#69c03b" fill-rule="evenodd"/>
    <path id="Trazado_137" data-name="Trazado 137" d="M130.562,68.672c.886,3.214-.347,6.308-.735,9.408-.917,7.338-.738,14.675-.8,22.023-.024,3.176.031,6.352-.072,9.521-.1,2.949-.343,3.3-3.258,3.269-7.506-.086-14.97.7-22.459.889-.817-3.653-.086-7.207.872-10.689a62.383,62.383,0,0,1,18.2-29.975A15.736,15.736,0,0,1,130.562,68.672Z" transform="translate(166.409 87.553)" fill="#69c03b" fill-rule="evenodd"/>
    <path id="Trazado_138" data-name="Trazado 138" d="M88.479,74.3q.4-7.983.793-15.973c.069-1.483.027-2.85,2.067-3.166a66.2,66.2,0,0,1,18.926.158,12.344,12.344,0,0,1,2.448.852,4.6,4.6,0,0,1-.6,3.307C107.539,67.752,100.86,73.14,91.37,74.75A3.929,3.929,0,0,1,88.479,74.3Z" transform="translate(131.343 53.186)" fill="#69c03b" fill-rule="evenodd"/>
  </g>
</svg>
