<svg xmlns="http://www.w3.org/2000/svg" width="248.209" height="265.418" viewBox="0 0 248.209 265.418">
  <g id="Grupo_55" data-name="Grupo 55" transform="translate(17095 -5730.668)">
    <path id="Trazado_176" data-name="Trazado 176" d="M821.566,534.516a331.31,331.31,0,0,1,.557-34.55c.161-2.352.7-5.192,2.917-5.991a6.361,6.361,0,0,1,3.988.366c4.6,1.435,9.358,2.68,14.167,2.4s9.727-2.321,12.456-6.29c4.3-6.262,1.422-15.729-5-19.785s-15.113-3.239-21.657.62c-1.676.988-3.476,2.207-5.389,1.857-3.436-.63-3.968-5.3-3.567-8.769,1.563-13.54,4.657-27.232,2.284-40.654-.252-1.423-.643-2.961-1.8-3.819-1.373-1.013-3.278-.7-4.946-.343-14.532,3.118-29.253,6.3-42.5,13.051S748.01,450.19,743.332,464.3c-3.867,11.66-2.571,24.3-3.329,36.562s-4.467,25.624-14.832,32.217c-3.732,2.374-8.85,4.961-8.255,9.343.267,1.963,1.733,3.545,3.3,4.761,2.689,2.092,5.862,3.518,8.453,5.731s4.606,5.619,3.8,8.929c-.544,2.225-2.237,3.96-3.324,5.976s-1.373,4.911.469,6.272c.983.726,2.36.827,3.238,1.678,2.378,2.3-1.324,5.963-1.445,9.272-.113,3.062,2.879,5.2,4.414,7.85,3.785,6.532-1.6,15.595,2.172,22.136,2.1,3.638,6.437,5.316,10.554,6.135,8.635,1.717,17.556.824,26.289-.282,6.637-.84,14.551-1.325,18.77,3.867,4.035,4.965,2.342,12.369,4.336,18.449,2,6.1,7.716,10.428,13.858,12.29s12.714,1.613,19.107,1.034c21.58-1.956,43.6-7.425,64.572-1.965-7.628-11.821-13.155-25.19-14.6-39.184s1.4-28.633,9.239-40.317c7.677-11.443,20.277-20.889,21.405-34.624.137-1.661-.01-3.56-1.292-4.625-1.142-.949-2.785-.9-4.267-.806l-13.812.893c-2.8.181-6.069.646-7.414,3.106-.941,1.721-.569,3.819-.422,5.774,1.209,16.122-2.247,24.781-11.9,26.129-6.4.894-12.826-1.693-14.493-7.936-1.247-4.671-.977-8.784,1.413-12.988s3.033-10.835-1.422-12.713a9.973,9.973,0,0,0-4.128-.488l-33.791.773" transform="translate(-17808.381 5335.542)" fill="#fedca9"/>
    <path id="Trazado_177" data-name="Trazado 177" d="M857.4,511.488l-6.231-31.18c-.427-2.134-.669-4.78,1.087-6.064,2.542-1.856,5.67,1.123,8.409,2.674,4.521,2.563,10.67.807,14.013-3.172s4.175-9.62,3.269-14.738c-1.752-9.9-11.745-18.8-21.411-16.027-7.062,2.022-11.649,9.241-18.653,11.461L828.3,407.37a5.459,5.459,0,0,1,.077-3.545c.851-1.676,3.069-1.989,4.946-2.08q9.733-.466,19.48-.441c9.778.025,19.67.442,29.069,3.135,15.1,4.332,28.164,14.442,37.737,26.9s15.857,27.183,20.186,42.287c2.3,8.015,3.21,18.47-3.841,22.918-3.462,2.183-7.839,2.1-11.775,3.227s-7.976,4.646-6.957,8.609c.516,2.013,2.195,3.47,3.5,5.084,4.731,5.83,4.414,15.329-1.1,20.423s-15.522,4.342-19.785-1.839c-4.794-6.952-2.9-18.834-10.708-22.055-2.913-1.2-6.22-.581-9.306.06l-21.786,4.516" transform="translate(-17791.682 5332.853)" fill="#1d71b8"/>
    <path id="Trazado_178" data-name="Trazado 178" d="M825.472,534.976c-.213-6.48-.277-12.961-.13-19.442q.1-4.32.308-8.637c.087-1.793.135-3.6.308-5.392.3-3.049.382-3.535,3.6-3.078,5.45.774,10.01,2.735,15.7,2.059a20,20,0,0,0,11.739-5.334c6.261-6.179,5.662-16.1.49-22.759-5.63-7.245-15.729-8.819-24.136-6.142-1.967.626-3.721,1.886-5.643,2.511-4.021,1.3-3.724,1.074-3.862-1.888a25.906,25.906,0,0,1,.357-4.186c.763-6.443,1.889-12.839,2.463-19.305.588-6.625,3.108-24.822-6.3-26.975-4.638-1.063-10.669,1.418-15.176,2.453-6.261,1.438-12.492,3.031-18.584,5.08-10.289,3.463-20.1,8.206-28.522,15.124a55.558,55.558,0,0,0-17.053,23.16c-4.176,11.174-3.443,23.286-3.836,34.993-.345,10.274-1.829,22.012-9.184,29.864-4.826,5.153-17.039,8.765-13.558,18.115,1.471,3.95,5.4,6.09,8.738,8.241,3.239,2.084,6.646,4.034,5.821,8.336-.536,2.792-2.816,4.758-3.435,7.576a7.638,7.638,0,0,0,2.746,8.177c2.349,1.776,2.383.256,1.136,3.759-.783,2.2-1.381,4.257-.749,6.59,1.319,4.862,5.567,6.8,5.515,12.391-.046,4.942-1.434,9.853.216,14.7,3.163,9.281,14.894,10.795,23.269,11.043,6.981.207,13.788-.99,20.712-1.561,7.535-.62,13.849.569,15.046,9.165.748,5.361.691,10.6,3.666,15.351a24.3,24.3,0,0,0,11.18,9.178c12.483,5.323,27.447,1.907,40.375.25,15.424-1.978,31.015-3.766,46.324-.047,2.809.682,5.565-2.434,3.9-5.069-12-18.967-18.791-42.007-11.308-64,5.879-17.278,25.375-28.173,27.634-46.753.411-3.371.166-7.061-2.811-9.234-3.41-2.488-9.091-1.078-12.914-.83-6.629.428-16.94-.282-18.27,8.371-1.174,7.649,2.933,18.138-3.4,24.55-2.379,2.409-5.973,3.027-9.222,2.537-8.046-1.216-8.584-9.506-5.854-15.736,2.561-5.844,4.275-14.945-3.484-17.782-5.123-1.873-12.108-.449-17.435-.327-7.134.163-12.869.326-20,.489-4.434.1-4.45,7,0,6.9,5.631-.129,9.864-.258,15.5-.386l9.011-.206c2.79-.064,6.613-.927,9.289-.189,5.269,1.453,1.086,7.666-.078,10.639a20.148,20.148,0,0,0-.26,13.767c4.377,12.642,23.4,12.974,29.819,1.98,3.575-6.124,3.591-14.039,3.16-20.882-.191-3.026-.574-5.056,2.376-6.164,2.2-.825,5.542-.448,7.869-.6,1.986-.128,6.026-1.188,7.892-.51,3.256,1.182,1.709,5.022.876,7.352-3.155,8.834-10.551,15.544-16.214,22.768a61.526,61.526,0,0,0-11.715,23.925c-5.268,22.289,1.625,44.9,13.588,63.8l3.9-5.069c-23.43-5.691-46.294,1.012-69.769,2.159-12.038.589-24.778-2.487-26.316-16.277-.888-7.966-1.94-16.006-10.587-19.026-9.16-3.2-19.8.4-29.17.565-5.427.1-12.584.187-17.234-3.081-5.007-3.521-2.863-9.779-2.666-14.94a17.034,17.034,0,0,0-2.721-10.768c-1.2-1.739-3-3.07-2.956-5.337.036-1.959,1.837-3.982,2.038-6.028.357-3.65-1.7-4.385-3.845-6.532-2.589-2.595,2.968-7.946,2.928-11.778-.039-3.781-2.277-7.249-4.987-9.712-3.025-2.75-13.157-6.218-8.953-11.22,2.3-2.732,6.519-4.126,9.182-6.642a33.969,33.969,0,0,0,7.525-11.035c8.494-19.2.6-41.341,9.347-60.286,9.135-19.79,30.613-29.108,50.463-34.307,4.915-1.286,9.877-2.384,14.841-3.46,3.786-.819,5.122-1.262,5.706,2.777a59.75,59.75,0,0,1,.483,10.2,169.41,169.41,0,0,1-1.868,18.386c-.641,4.656-2.039,9.852-1.08,14.536.656,3.2,2.527,6.28,5.93,7.046,4.863,1.1,9.265-3.423,13.745-4.5,6.531-1.571,13.956.407,16.775,6.966,2.7,6.271-.5,12.035-6.947,13.815-6.95,1.92-12.571-1.968-19.228-2.364-3.853-.229-6.719,2.154-7.774,5.772-1.51,5.183-1.058,11.426-1.212,16.761-.208,7.2-.162,14.4.075,21.6.153,4.688,7.055,4.708,6.9,0Z" transform="translate(-17808.836 5335.083)"/>
    <path id="Trazado_179" data-name="Trazado 179" d="M861.169,511.026l-4.9-24.5c-.37-1.854-.8-3.7-1.112-5.568-.362-2.158-1.312-3.017,1.372-2.4,2.22.51,4.111,2.651,6.53,3.18,10.966,2.394,18.853-8.016,19.1-17.936.245-10.062-6.279-20.231-16-23.4-12.586-4.11-18.426,7.308-28.752,11.173l4.244,2.411-8.214-40.348c-.722-3.548-2.853-6.994,1.408-8.03,2.925-.71,6.7-.256,9.739-.317,6.377-.128,12.782-.176,19.152.189,25.27,1.442,45.644,14.764,58.9,36.13A127.151,127.151,0,0,1,936.911,475c1.246,4.55,2.411,9.857.938,14.5-2.078,6.554-8.774,5.738-14.143,7.4-7.8,2.414-12.448,10.019-7.026,17.068,3.473,4.515,6.02,9.427,3.1,15.114a10.2,10.2,0,0,1-13.637,4.056c-8.252-4.424-5-17.759-11.962-23.839-3.969-3.463-9.031-3.184-13.889-2.3-7.6,1.383-15.157,3.132-22.724,4.7-4.346.9-2.506,7.555,1.835,6.654,7.818-1.621,15.752-3.795,23.66-4.884,8.615-1.187,9.164,5.92,10.84,12.321,2.384,9.111,8.428,16.129,18.609,15.291,9.687-.8,16.047-9.474,15.358-18.92a19.069,19.069,0,0,0-1.484-6.109c-1.14-2.672-3.892-4.883-4.41-7.7-.556-3.04.615-3.656,3.569-4.793a32.891,32.891,0,0,1,5.2-1.055,20.908,20.908,0,0,0,7.982-2.943c8.5-5.855,7.216-17.724,4.846-26.392a132.389,132.389,0,0,0-16.016-36.7c-14.633-22.657-36.8-36.379-63.812-37.894-8.528-.478-17.114-.319-25.645-.006-5.107.187-12.119-.031-12.934,6.529-.417,3.356.959,7.1,1.625,10.371l2.51,12.328,5.7,28.02a3.467,3.467,0,0,0,4.245,2.41c8.272-3.1,15.788-14.639,25.371-11.035A17.326,17.326,0,0,1,874.891,459.6c1.256,5.958-.829,15.056-8.323,15.413-4.71.224-7.784-4.809-12.553-4.323a6.787,6.787,0,0,0-6.031,6.08c-.732,4.747,1.379,10.306,2.3,14.929l4.228,21.157c.87,4.352,7.522,2.51,6.654-1.835Z" transform="translate(-17792.125 5332.397)"/>
  </g>
</svg>
