<svg xmlns="http://www.w3.org/2000/svg" width="336.002" height="270.882" viewBox="0 0 336.002 270.882">
  <g id="Grupo_28" data-name="Grupo 28" transform="translate(-255.279 70.2)">
    <path id="Trazado_91" data-name="Trazado 91" d="M255.343,4.863c-.256-6.55.138-13.2,3.64-18.682,17.193-27.047,40.3-45.532,73.348-48.738,11.048-1.065,21.385,1.716,31.318,6.826,23.417,12.064,41.8,19.669,56.017,42,5.82,9.154,11.048,17.025,13.889,17.124,2.92.108,6.777-10.91,10.762-17.923,13.474-23.6,30.756-38.321,55.849-48.462,9.617-3.886,16.069-3.581,22.4-5.11,31.229-7.536,54.242,5.376,64.619,36.122A71.492,71.492,0,0,1,588.9,10.111c-7.24,27.491-18.87,52.92-35.954,75.587-32.215,42.76-67.3,82.581-116.059,107.537-5.13,2.624-9.657,8.9-15.565,7.141-7.812-2.318-15.891-5.169-21.9-11.649-8.749-9.381-18.959-17.2-28.438-25.794-31.072-28.083-62.5-55.9-87.829-89.555C267.92,53.118,255.422,31.4,255.343,4.863Z" transform="translate(0 0)" fill="#020202" fill-rule="evenodd"/>
    <path id="Trazado_92" data-name="Trazado 92" d="M258-4.738c-.207-5.524.118-11.136,3.078-15.763,14.5-22.805,33.991-38.4,61.857-41.1,9.321-.9,18.031,1.44,26.416,5.751,19.747,10.18,35.165,24.63,46.005,44.141,3.285,5.9,4.843,14.539,13.543,14.766,8.887.237,10.485-8.355,13.839-14.263,11.373-19.905,26.968-35.727,46.094-48.176,4.528-2.949,9.2-5.6,14.549-6.895,26.337-6.352,45.749,4.528,54.489,30.47a60.257,60.257,0,0,1,1.46,35.49c-6.106,23.18-15.92,44.634-30.322,63.751-27.175,36.063-56.767,69.649-97.89,90.7-4.33,2.21-8.138,7.5-13.129,6.017-6.589-1.953-13.405-4.36-18.465-9.824-7.379-7.9-15.99-14.5-23.989-21.75-26.2-23.683-52.713-47.15-74.068-75.528C268.6,35.96,258.066,17.643,258-4.738Z" transform="translate(23.643 19.061)" fill="#fedca9" fill-rule="evenodd"/>
    <path id="Trazado_93" data-name="Trazado 93" d="M295.97-38.459c4.3-5.07,7.92-9.548,11.767-13.819,2.012-2.259,4.7-3.807,7.684-1.933,3.028,1.894,2.614,5.031,1.489,7.763-3.8,9.233-9.479,17.41-15.249,25.429-2.851,3.946-7.694,3.581-11.166.888-8.305-6.461-13.059-15.842-18.426-24.611a5.262,5.262,0,0,1,1.124-6.777c2.249-1.993,4.686-1.036,6.984-.178C286.619-49.24,289.9-42.918,295.97-38.459Z" transform="translate(141.984 134.298)" fill="#050202" fill-rule="evenodd"/>
    <path id="Trazado_94" data-name="Trazado 94" d="M294.106-44.562c-.257,10.17-7.349,18.238-15.437,17.607-7.655-.582-13.267-8.661-12.9-18.5.3-8.493,5.908-14.234,14-14.332C288.267-59.871,294.353-53.44,294.106-44.562Z" transform="translate(92.812 92.245)" fill="#040202" fill-rule="evenodd"/>
    <path id="Trazado_95" data-name="Trazado 95" d="M277.463-44.694c-.118-8.582,5.277-14.944,12.863-15.151,7.8-.207,13.336,5.642,13.651,14.391.336,9.8-4.587,16.946-12.014,17.39C284.022-27.58,277.611-34.949,277.463-44.694Z" transform="translate(196.613 91.736)" fill="#050202" fill-rule="evenodd"/>
  </g>
</svg>
