<svg xmlns="http://www.w3.org/2000/svg" width="240" height="85.176" viewBox="0 0 240 85.176">
  <g id="Grupo_54" data-name="Grupo 54" transform="translate(13543 -5491.824)">
    <g id="Grupo_52" data-name="Grupo 52" transform="translate(-13543 5491.824)">
      <path id="Trazado_66" data-name="Trazado 66" d="M1492.5,611.728c-2.037-3.148-9.5-13.584-18.287-12.409a.957.957,0,0,1-.744-.223l-.126-.106a1.308,1.308,0,0,0,.466-.943c.28-5.313,1.083-24.891-1.626-35.546-3.154-12.405-3.632-13.982-3.632-13.982l-2.087-6.072a1.264,1.264,0,0,0-.509-.658c-1.516-.972-7.493-4.336-13.732-1.484a5.746,5.746,0,0,0-3.188,4.2c-.735,3.955-2.562,4.937-2.562,4.937a3.3,3.3,0,0,1-2.413.247,2.67,2.67,0,0,0-3.72,2.81,3.275,3.275,0,0,1-1.663,3.539,4.133,4.133,0,0,1-1.893.577,4.035,4.035,0,0,0-3.507,2.13h0a1.362,1.362,0,0,0-.02,1.253c-.253-.179-.567-.155-1.021.406a40.491,40.491,0,0,0-2.654,4.605c-1.713,3.268-1.713,3.268-2.626,5.072l-6.668,11.407c-.82,2.369.661,5.323,3.155,6.616,1.8.933,4.4.765,7.357-3.39a6.1,6.1,0,0,0,.546-.938c7.135-15.193,4.139-21.139,2.573-22.962-.047-.054-.093-.116-.139-.18,2.845,3.09,10.4,14.043,4.861,39.145a1.373,1.373,0,0,0-.029.372h0l-.389,1.086A43.825,43.825,0,0,0,1417.06,614.5c-8.6,9.716,40.753,1.534,49.976-.066a11.264,11.264,0,0,1,2.973-.118l9.583.893a15.811,15.811,0,0,0,12.614-1.964A1.122,1.122,0,0,0,1492.5,611.728Z" transform="translate(-1416.057 -539.181)" fill="#1d71b8"/>
      <path id="Trazado_67" data-name="Trazado 67" d="M1608.49,847.477s-16.4-8.535-33.675,4.05c-1.838,9.437-1.842,10.219-1.842,10.219s26.26-4.13,35.076-1.429C1608.407,848.044,1608.49,847.477,1608.49,847.477Z" transform="translate(-1550.306 -800.523)" fill="#1d1d1b"/>
    </g>
    <g id="Grupo_53" data-name="Grupo 53" transform="translate(-13549.681 5160.833)">
      <g id="Grupo_35" data-name="Grupo 35" transform="translate(94.681 331.351)">
        <path id="Trazado_146" data-name="Trazado 146" d="M102.252,356.057v1.3h-1.1v-1.379c0-1.88-.727-3.309-2.657-3.309s-2.658,1.429-2.658,3.309v9.126c0,1.88.727,3.284,2.658,3.284s2.657-1.4,2.657-3.284v-3.786H98.818v-1.053h3.435v4.763c0,2.532-1.1,4.438-3.786,4.438s-3.786-1.905-3.786-4.438v-8.975c0-2.532,1.1-4.438,3.786-4.438S102.252,353.524,102.252,356.057Z" transform="translate(-94.681 -348.36)"/>
        <path id="Trazado_147" data-name="Trazado 147" d="M154.609,365.868c0,1.88.7,3.335,2.632,3.335s2.632-1.454,2.632-3.335V352.555h1.078v13.262c0,2.507-1.053,4.438-3.736,4.438s-3.761-1.93-3.761-4.438V352.555h1.153Z" transform="translate(-144.005 -349.145)"/>
        <path id="Trazado_148" data-name="Trazado 148" d="M212.758,366.088l-.877,3.886h-1.053l3.836-17.575h1.68l3.911,17.575H219.1l-.878-3.886Zm.176-1h5.114l-2.582-11.357Z" transform="translate(-192.151 -349.014)"/>
        <path id="Trazado_149" data-name="Trazado 149" d="M284.021,352.555c2.683,0,3.761,1.479,3.761,3.961v1.529c0,2.056-.8,3.234-2.532,3.635,1.805.4,2.532,1.68,2.532,3.585V368a3.937,3.937,0,0,0,.426,2.106H287a4.116,4.116,0,0,1-.376-2.106v-2.758c0-2.332-1.279-2.983-3.284-2.983h-1.83V370.1h-1.153v-17.55Zm-.652,8.65c2.056,0,3.259-.577,3.259-2.933v-1.655c0-1.88-.727-3.009-2.633-3.009h-2.482v7.6Z" transform="translate(-250.502 -349.145)"/>
        <path id="Trazado_150" data-name="Trazado 150" d="M344.4,352.555c2.707,0,3.886,1.78,3.886,4.362v8.825c0,2.582-1.178,4.362-3.886,4.362h-3.861v-17.55Zm-.025,16.5c1.956,0,2.758-1.329,2.758-3.259v-8.925c0-1.93-.828-3.259-2.758-3.259h-2.682v15.444Z" transform="translate(-301.003 -349.145)"/>
        <path id="Trazado_151" data-name="Trazado 151" d="M406.5,360.678v1.053h-4.789v7.321h5.766V370.1h-6.919v-17.55h6.919v1.053h-5.766v7.07Z" transform="translate(-351.375 -349.145)"/>
        <path id="Trazado_152" data-name="Trazado 152" d="M458.945,352.555c2.683,0,3.76,1.479,3.76,3.961v1.529c0,2.056-.8,3.234-2.532,3.635,1.805.4,2.532,1.68,2.532,3.585V368a3.937,3.937,0,0,0,.426,2.106h-1.2a4.116,4.116,0,0,1-.376-2.106v-2.758c0-2.332-1.279-2.983-3.284-2.983h-1.83V370.1h-1.153v-17.55Zm-.652,8.65c2.056,0,3.259-.577,3.259-2.933v-1.655c0-1.88-.727-3.009-2.633-3.009h-2.482v7.6Z" transform="translate(-397.297 -349.145)"/>
        <path id="Trazado_153" data-name="Trazado 153" d="M514.9,331.351h1.2L514,333.733h-.877Zm-1.4,3.41h1.153v17.55H513.5Z" transform="translate(-445.835 -331.351)"/>
        <path id="Trazado_154" data-name="Trazado 154" d="M535.477,366.088l-.877,3.886h-1.053l3.836-17.575h1.68l3.911,17.575H541.82l-.878-3.886Zm.176-1h5.114l-2.582-11.357Z" transform="translate(-462.973 -349.014)"/>
        <path id="Trazado_155" data-name="Trazado 155" d="M628.4,352.555V370.1h-1.153v-17.55Z" transform="translate(-541.604 -349.145)"/>
        <path id="Trazado_156" data-name="Trazado 156" d="M647.94,370.1h-1.053v-17.55h1.5l5.265,14.817V352.555h1.053V370.1H653.43L647.94,354.46Z" transform="translate(-558.088 -349.145)"/>
        <path id="Trazado_157" data-name="Trazado 157" d="M713.536,361.1v1.053H709V370.1h-1.153v-17.55h6.669v1.053H709v7.5Z" transform="translate(-609.243 -349.145)"/>
        <path id="Trazado_158" data-name="Trazado 158" d="M758.575,366.088l-.877,3.886h-1.053l3.836-17.575h1.68l3.911,17.575h-1.153l-.878-3.886Zm.176-1h5.115l-2.582-11.357Z" transform="translate(-650.196 -349.014)"/>
        <path id="Trazado_159" data-name="Trazado 159" d="M827.231,370.1h-1.053v-17.55h1.5l5.265,14.817V352.555H834V370.1h-1.279l-5.49-15.644Z" transform="translate(-708.547 -349.145)"/>
        <path id="Trazado_160" data-name="Trazado 160" d="M886.954,370.1v-16.5h-3.56v-1.053h8.3v1.053h-3.585v16.5Z" transform="translate(-756.562 -349.145)"/>
        <path id="Trazado_161" data-name="Trazado 161" d="M945.038,352.555V370.1h-1.153v-17.55Z" transform="translate(-807.326 -349.145)"/>
        <path id="Trazado_162" data-name="Trazado 162" d="M963.528,370.1v-17.55h1.153v16.5H970.2V370.1Z" transform="translate(-823.81 -349.145)"/>
      </g>
      <g id="Grupo_36" data-name="Grupo 36" transform="translate(146.592 354.517)">
        <path id="Trazado_163" data-name="Trazado 163" d="M418.09,507.642q0-1.745-.1-3.22t-.2-2.851q-.1-1.375-.2-2.784t-.1-3.052v-2.8q0-1.593.049-3.371t.182-3.639q.133-1.862.4-3.606a28.336,28.336,0,0,1,.695-3.3,12.122,12.122,0,0,1,1.092-2.734,1.032,1.032,0,0,1,.338-.369,2.339,2.339,0,0,1,.49-.268c.169-.067.32-.123.455-.168a1.084,1.084,0,0,1,.3-.067,2.025,2.025,0,0,1,.354.033.531.531,0,0,1,.321.2,6.986,6.986,0,0,1,1.418,2.331,20.144,20.144,0,0,1,.928,3.086,30.338,30.338,0,0,1,.524,3.187,25.059,25.059,0,0,1,.169,2.6,14.936,14.936,0,0,1-.422,3.522,21.754,21.754,0,0,1-1.164,3.472,32.44,32.44,0,0,1-1.722,3.421q-.979,1.694-2.092,3.371.072.973.145,1.476t.126.939q.054.436.108,1.023t.09,1.795a3.969,3.969,0,0,0,1.325-1.392q.52-.888,1.006-1.861a20.433,20.433,0,0,1,1.09-1.912,4.845,4.845,0,0,1,1.61-1.543q.7-.369,1.426-.755a3.069,3.069,0,0,1,1.459-.386,1.762,1.762,0,0,1,1.207.386,2.768,2.768,0,0,1,.688.939,7.488,7.488,0,0,1,.419,1.191,5.227,5.227,0,0,0,.436,1.141q.469.637.922,1.275a1.425,1.425,0,0,0,1.224.637,6.139,6.139,0,0,0,2.549-.486,7.825,7.825,0,0,0,1.979-1.292,17.73,17.73,0,0,0,1.744-1.794q.838-.989,1.811-2a.871.871,0,0,1,.637-.268,1.264,1.264,0,0,1,1.208,1.207.871.871,0,0,1-.269.637q-1.04,1.006-2.079,2.147a24.33,24.33,0,0,1-2.18,2.113,11.974,11.974,0,0,1-2.415,1.61,6.144,6.144,0,0,1-2.784.637,3.1,3.1,0,0,1-1.342-.3,4.511,4.511,0,0,1-1.157-.788,7.073,7.073,0,0,1-.956-1.107,10.028,10.028,0,0,1-.771-1.291,1.6,1.6,0,0,1-.285-.721q-.051-.385-.1-.721a1.441,1.441,0,0,0-.2-.57.648.648,0,0,0-.587-.235,2.717,2.717,0,0,0-1.778.6,6.116,6.116,0,0,0-1.311,1.526,20.564,20.564,0,0,0-1.08,1.979,20.666,20.666,0,0,1-1.08,1.979,6.288,6.288,0,0,1-1.3,1.526,2.678,2.678,0,0,1-1.771.6h-.264a2.278,2.278,0,0,1-.562.1Q418.09,508.682,418.09,507.642Zm3.363-29.383a16.362,16.362,0,0,0-.632,2.23q-.291,1.325-.5,2.868t-.358,3.187q-.154,1.644-.239,3.17t-.137,2.851q-.051,1.326-.051,2.231,0,.6.017,1.191t.05,1.157a34.647,34.647,0,0,0,2.539-5.048,13.475,13.475,0,0,0,1.017-5.048q0-.7-.1-1.929t-.3-2.532a21.072,21.072,0,0,0-.537-2.5A6.362,6.362,0,0,0,421.454,478.259Z" transform="translate(-417.496 -475.408)"/>
        <path id="Trazado_164" data-name="Trazado 164" d="M560.261,531.659q-.134-.6-.218-1.073a4.845,4.845,0,0,1-.084-.839,1.094,1.094,0,0,1,.369-.922,2.453,2.453,0,0,1,1.409-.285q.536,0,.839.755a12.405,12.405,0,0,1,.553,1.9q.252,1.141.47,2.449a18.707,18.707,0,0,0,.57,2.448,6.36,6.36,0,0,0,.906,1.9,1.7,1.7,0,0,0,1.426.755,2.574,2.574,0,0,0,1.358-.335,3.375,3.375,0,0,0,.939-.838,5.493,5.493,0,0,0,.654-1.107q.268-.6.52-1.107a3.769,3.769,0,0,1,.554-.838.992.992,0,0,1,.772-.336,1.72,1.72,0,0,1,.5.738,3.475,3.475,0,0,1,.067.738,7.854,7.854,0,0,1-.654,1.929,6.182,6.182,0,0,1-1.123,1.61,5.273,5.273,0,0,1-1.577,1.107,4.725,4.725,0,0,1-2.013.419,6.2,6.2,0,0,1-1.761-.252,3.549,3.549,0,0,1-1.526-.922,7.7,7.7,0,0,1-1.191-2.13q-.52-1.325-.922-2.6-.234-.771-.453-1.543T560.261,531.659Zm1.912-8.721a2.237,2.237,0,0,1-.469-.05.831.831,0,0,1-.436-.268,1.555,1.555,0,0,1-.319-.654,5.038,5.038,0,0,1-.118-1.241,2.967,2.967,0,0,1,1.006-1.711,2.624,2.624,0,0,1,1.711-.637.881.881,0,0,1,.587.268,1.889,1.889,0,0,1,.352.554,2.3,2.3,0,0,1,.168.671c.022.235.033.442.033.62a3.474,3.474,0,0,1-.117.906,1.966,1.966,0,0,1-.4.771,2.14,2.14,0,0,1-.771.554A3,3,0,0,1,562.173,522.938Z" transform="translate(-537.05 -511.466)"/>
        <path id="Trazado_165" data-name="Trazado 165" d="M576.5,536.917a42.6,42.6,0,0,0,.218,4.411q.218,2.1.553,4.109,1.509-1.174,3.052-2.365t3.186-2.7a.778.778,0,0,1,.571-.235,1.01,1.01,0,0,1,.788.436,1.429,1.429,0,0,1,.352.906,1.18,1.18,0,0,1-.268.671q-1.946,1.644-3.757,2.985t-3.522,2.616q.637,3.253,1.224,6.356a34.691,34.691,0,0,1,.587,6.457,32.211,32.211,0,0,1-.939,7.413,22.966,22.966,0,0,1-.939,2.633q-.5,1.157-1.057,2.247t-1.174,2.18q-.62,1.089-1.258,2.4A4.14,4.14,0,0,1,573,578.845a9.375,9.375,0,0,1-1.526.939,1.059,1.059,0,0,1-.671.335.676.676,0,0,1-.47-.184,1.556,1.556,0,0,1-.335-.453,37.281,37.281,0,0,1-3.723-6.943,18.77,18.77,0,0,1-1.308-6.943,19.54,19.54,0,0,1,.922-6.172,22.117,22.117,0,0,1,2.382-5.048,24.068,24.068,0,0,1,3.287-4.076,45.226,45.226,0,0,1,3.639-3.254q-.469-2.347-.788-4.813a41.607,41.607,0,0,1-.319-5.316.968.968,0,0,1,.369-.838,1.392,1.392,0,0,1,.839-.269,1.415,1.415,0,0,1,.822.269A.952.952,0,0,1,576.5,536.917Zm-8.151,23.245a18.659,18.659,0,0,0-.94,5.736,16.425,16.425,0,0,0,1.006,5.719,36.239,36.239,0,0,0,2.75,5.719,1.733,1.733,0,0,0,.419-.436q.185-.269.453-.637a24.025,24.025,0,0,1,1.124-2.281q.587-1.04,1.157-2.063t1.056-2.1a14.54,14.54,0,0,0,.822-2.381,27.526,27.526,0,0,0,.688-3.757,32.917,32.917,0,0,0,.185-3.455,32.446,32.446,0,0,0-.419-5.266q-.42-2.549-.923-5.165l-.067-.369a29.284,29.284,0,0,0-2.281,2.113,20.863,20.863,0,0,0-2,2.4,21.134,21.134,0,0,0-1.694,2.834A22.291,22.291,0,0,0,568.35,560.161Zm8.788-29.551q-.235.2-.469.386a.726.726,0,0,1-.436.184h-1.208a1.228,1.228,0,0,1-.687-.151q-.218-.151-.218-1.056v-.906a2.969,2.969,0,0,1,1.006-1.711,2.624,2.624,0,0,1,1.711-.637q.637.671.922,1.04a1.672,1.672,0,0,1,.285,1.04,1.152,1.152,0,0,1-.1.352,5.581,5.581,0,0,1-.252.537q-.151.285-.3.537T577.138,530.611Z" transform="translate(-541.248 -518.469)"/>
        <path id="Trazado_166" data-name="Trazado 166" d="M676.228,531.659q-.134-.6-.218-1.073a4.846,4.846,0,0,1-.084-.839,1.094,1.094,0,0,1,.369-.922,2.454,2.454,0,0,1,1.409-.285q.536,0,.838.755a12.363,12.363,0,0,1,.554,1.9q.251,1.141.47,2.449a18.717,18.717,0,0,0,.57,2.448,6.362,6.362,0,0,0,.906,1.9,1.7,1.7,0,0,0,1.426.755,2.575,2.575,0,0,0,1.358-.335,3.374,3.374,0,0,0,.939-.838,5.487,5.487,0,0,0,.654-1.107q.268-.6.52-1.107a3.771,3.771,0,0,1,.554-.838.992.992,0,0,1,.772-.336,1.721,1.721,0,0,1,.5.738,3.48,3.48,0,0,1,.067.738,7.852,7.852,0,0,1-.654,1.929,6.181,6.181,0,0,1-1.124,1.61,5.272,5.272,0,0,1-1.577,1.107,4.726,4.726,0,0,1-2.012.419,6.205,6.205,0,0,1-1.761-.252,3.548,3.548,0,0,1-1.526-.922,7.7,7.7,0,0,1-1.191-2.13q-.521-1.325-.922-2.6-.234-.771-.453-1.543T676.228,531.659Zm1.912-8.721a2.235,2.235,0,0,1-.469-.05.832.832,0,0,1-.436-.268,1.554,1.554,0,0,1-.319-.654,5.04,5.04,0,0,1-.117-1.241,2.965,2.965,0,0,1,1.006-1.711,2.624,2.624,0,0,1,1.711-.637.881.881,0,0,1,.587.268,1.887,1.887,0,0,1,.352.554,2.3,2.3,0,0,1,.168.671c.022.235.033.442.033.62a3.472,3.472,0,0,1-.117.906,1.963,1.963,0,0,1-.4.771,2.14,2.14,0,0,1-.771.554A3,3,0,0,1,678.14,522.938Z" transform="translate(-634.368 -511.466)"/>
        <path id="Trazado_167" data-name="Trazado 167" d="M717.948,509.285q.068,1.644.218,3.321a29.175,29.175,0,0,0,.469,3.237,21.945,21.945,0,0,0,.805,2.935,9.746,9.746,0,0,0,1.224,2.415,5.65,5.65,0,0,0,1.727,1.627,4.481,4.481,0,0,0,2.331.587,4.229,4.229,0,0,0,2.549-.688,6.433,6.433,0,0,0,1.509-1.509,13.4,13.4,0,0,0,.922-1.509q.352-.687.788-.688a.765.765,0,0,1,.688.487,1.844,1.844,0,0,1,.252.788,6.6,6.6,0,0,1-1.962,3.522,5.774,5.774,0,0,1-1.711,1.107,5.264,5.264,0,0,1-2.063.4,13.551,13.551,0,0,1-2.08-.184,10.786,10.786,0,0,1-2.348-.654,4.939,4.939,0,0,1-2.012-1.492,8.92,8.92,0,0,1-1.442-2.818,27.817,27.817,0,0,1-1.023-4.461q-.419-2.667-.788-6.457-.57,0-1.107-.05a5.017,5.017,0,0,1-.939-.168,1.588,1.588,0,0,1-.654-.352.788.788,0,0,1-.252-.6q.269-.671.621-.789a1.938,1.938,0,0,1,.587-.117.554.554,0,0,0,.268.033,3.08,3.08,0,0,0,.671-.067,2.785,2.785,0,0,1,.6-.067l-.335-3.723q-.134-.6-.218-1.073a4.869,4.869,0,0,1-.084-.839,1.094,1.094,0,0,1,.369-.922,2.453,2.453,0,0,1,1.409-.285q.269,0,.419.453a6.152,6.152,0,0,1,.235,1.258q.084.8.134,1.912t.117,2.382l.034.939H726a4,4,0,0,1,.335.4,1.888,1.888,0,0,1,.235.386,1.069,1.069,0,0,1,.1.453.8.8,0,0,1-.419.654,3.078,3.078,0,0,1-1.593.285c-.134,0-.285-.005-.453-.017s-.375-.028-.621-.051Z" transform="translate(-665.523 -496.238)"/>
        <path id="Trazado_168" data-name="Trazado 168" d="M815.425,602.341q0-.134.268-.268a3.5,3.5,0,0,1,.637-.235q.369-.1.721-.168a3.125,3.125,0,0,1,.52-.067q.268,0,.268.235,0,1.308-.1,2.314t-.1,1.945a7.764,7.764,0,0,0,.235,2.231,1.032,1.032,0,0,0,1.107.721,3.011,3.011,0,0,0,.855-.134,3.166,3.166,0,0,0,.839-.386,3.476,3.476,0,0,0,.688-.587,1.714,1.714,0,0,0,.4-.738q.133-.6.352-1.375a12.064,12.064,0,0,1,.5-1.442,5.981,5.981,0,0,1,.621-1.14.929.929,0,0,1,.738-.47,1.121,1.121,0,0,1,.772.3,1.338,1.338,0,0,1,.4.872q.067.839.151,1.929a13.423,13.423,0,0,0,.319,2.08,5,5,0,0,0,.688,1.66,1.435,1.435,0,0,0,1.258.671,2.251,2.251,0,0,0,.989-.235,5.509,5.509,0,0,0,.855-.5q.234-.2.956-.872t1.493-1.493q.771-.821,1.409-1.593a3.794,3.794,0,0,0,.738-1.14.744.744,0,0,1,.57-.57,3.1,3.1,0,0,1,.838-.134q.939,0,.939,1.208a2.976,2.976,0,0,1-.755,1.492,19.221,19.221,0,0,1-1.811,2.03,28.3,28.3,0,0,1-2.214,1.962,11.839,11.839,0,0,1-1.962,1.325,9.809,9.809,0,0,1-1.14.453,3.7,3.7,0,0,1-1.141.184,3.5,3.5,0,0,1-1.073-.184,4.035,4.035,0,0,1-1.14-.6,4.777,4.777,0,0,1-1.057-1.107,5.749,5.749,0,0,1-.788-1.728,3.3,3.3,0,0,1-.788.889,5.038,5.038,0,0,1-1.09.654,6.807,6.807,0,0,1-1.275.419,5.951,5.951,0,0,1-1.308.151,3.1,3.1,0,0,1-2.784-1.157,5.941,5.941,0,0,1-.772-3.3q0-1.71.067-2.616T815.425,602.341Z" transform="translate(-751.294 -581.31)"/>
        <path id="Trazado_169" data-name="Trazado 169" d="M945.4,570.179q-.672.1-1.509.2a15.758,15.758,0,0,0-1.912.369q-.94,5.367-5.367,5.367-.47,0-.939-.034a5.456,5.456,0,0,1-1.141-.235.8.8,0,0,1-.52-.151.9.9,0,0,1-.268-.352,1.317,1.317,0,0,1-.1-.4c-.012-.134-.017-.246-.017-.335a9.629,9.629,0,0,1,.973-2.063,6.046,6.046,0,0,1,1.291-1.426,8.892,8.892,0,0,1,1.795-1.09q1.039-.486,2.482-1.057l.3-1.207a16.505,16.505,0,0,0-.218-2.717,25.63,25.63,0,0,0-.687-2.918,18.213,18.213,0,0,1-1.828,1.962q-1.056.99-2.247,2t-2.432,2.029q-1.242,1.023-2.415,2.1a2.51,2.51,0,0,1-1.241.5q-.671,0-.671-.839a2.259,2.259,0,0,1,.218-.922,2.411,2.411,0,0,1,.654-.855q.973-.872,2.08-1.912l2.2-2.063q1.09-1.023,2.13-1.979t1.878-1.694q.838-.737,1.442-1.174a1.932,1.932,0,0,1,.839-.436q.436,0,.838,1.107a19.429,19.429,0,0,1,.721,2.633q.318,1.527.5,3.119a23.6,23.6,0,0,1,.185,2.6,3.8,3.8,0,0,1,1.006-.335,5.151,5.151,0,0,1,.771-.067,3.464,3.464,0,0,1,.654.05,2.207,2.207,0,0,0,.419.05h.1a1.52,1.52,0,0,1,.939.369.931.931,0,0,1,.3.671,1.1,1.1,0,0,1-.3.721A1.332,1.332,0,0,1,945.4,570.179Zm-9.124,3.857a3.572,3.572,0,0,0,2.365-.671,4.552,4.552,0,0,0,1.258-2.046,9.113,9.113,0,0,0-2.381,1.157A3.049,3.049,0,0,0,936.276,574.037Z" transform="translate(-846.518 -545.425)"/>
      </g>
    </g>
  </g>
</svg>
